<svg width="32" height="33" viewBox="0 0 32 33" fill="none" xmlns="http://www.w3.org/2000/svg">
<path d="M3.12195 33C2.26341 33 1.52819 32.6849 0.916292 32.0546C0.305431 31.4254 0 30.6687 0 29.7844V7.27527C0 6.39099 0.305431 5.63371 0.916292 5.00346C1.52819 4.37428 2.26341 4.05968 3.12195 4.05968H17.0537L13.9317 7.27527H3.12195V29.7844H24.9756V18.6102L28.0976 15.3946V29.7844C28.0976 30.6687 27.7921 31.4254 27.1813 32.0546C26.5694 32.6849 25.8341 33 24.9756 33H3.12195ZM20.5659 4.98417L22.7902 7.23508L12.4878 17.8465V20.1376H14.6732L25.0146 9.48599L27.239 11.7369L16.8976 22.3885C16.6114 22.6833 16.2799 22.918 15.9032 23.0928C15.5255 23.2664 15.1285 23.3532 14.7122 23.3532H10.9268C10.4846 23.3532 10.1141 23.1994 9.81541 22.8918C9.51571 22.5831 9.36585 22.201 9.36585 21.7454V17.8465C9.36585 17.4178 9.4439 17.0089 9.6 16.6198C9.7561 16.2318 9.97723 15.8904 10.2634 15.5956L20.5659 4.98417ZM27.239 11.7369L20.5659 4.98417L24.4683 0.964677C25.0927 0.321559 25.8409 0 26.713 0C27.584 0 28.3187 0.321559 28.9171 0.964677L31.1024 3.25579C31.7008 3.87211 32 4.62241 32 5.5067C32 6.39099 31.7008 7.14129 31.1024 7.75761L27.239 11.7369Z" fill="#0077B6"/>
</svg>
