<svg width="42" height="42" viewBox="0 0 42 42" fill="none" xmlns="http://www.w3.org/2000/svg">
<path d="M12.5834 33.5C10.2917 33.5 8.43754 35.375 8.43754 37.6666C8.43754 39.9583 10.2917 41.8333 12.5834 41.8333C14.875 41.8333 16.75 39.9583 16.75 37.6666C16.75 35.375 14.875 33.5 12.5834 33.5ZM0.083374 2.24996C0.083374 3.3958 1.02087 4.3333 2.16671 4.3333H4.25004L11.75 20.1458L8.93754 25.2291C7.41671 28.0208 9.41671 31.4166 12.5834 31.4166H35.5C36.6459 31.4166 37.5834 30.4791 37.5834 29.3333C37.5834 28.1875 36.6459 27.25 35.5 27.25H12.5834L14.875 23.0833H30.3959C31.9584 23.0833 33.3334 22.2291 34.0417 20.9375L41.5 7.41663C41.6756 7.10085 41.7657 6.74469 41.7614 6.38341C41.757 6.02213 41.6584 5.66824 41.4753 5.35676C41.2922 5.04528 41.031 4.78701 40.7174 4.6075C40.4039 4.42799 40.0489 4.33347 39.6875 4.3333H8.85421L7.45837 1.35413C7.29094 0.998516 7.02566 0.697963 6.6936 0.487656C6.36153 0.27735 5.97643 0.165995 5.58337 0.166629H2.16671C1.02087 0.166629 0.083374 1.10413 0.083374 2.24996ZM33.4167 33.5C31.125 33.5 29.2709 35.375 29.2709 37.6666C29.2709 39.9583 31.125 41.8333 33.4167 41.8333C35.7084 41.8333 37.5834 39.9583 37.5834 37.6666C37.5834 35.375 35.7084 33.5 33.4167 33.5Z" fill="#0077B6"/>
</svg>
