<svg width="172" height="55" viewBox="0 0 172 55" fill="none" xmlns="http://www.w3.org/2000/svg">
<path d="M8.11462 54.1064C25.8859 57.3828 35.2075 45.8737 35.9457 36.6683C36.7692 26.3876 30.2377 19.4434 21.5497 18.7478C13.1407 18.0736 5.03583 23.7855 6.17899 33.483C6.17899 33.483 20.3406 28.8135 23.741 37.9723L23.7527 38.0072C24.0578 38.9191 24.1751 39.8834 24.0976 40.8418C23.7779 44.8371 20.2224 47.8171 16.1419 47.4838C15.0655 47.3916 14.0186 47.0841 13.0634 46.5796C12.1081 46.075 11.264 45.3836 10.5811 44.5465C10.5811 44.5465 9.80611 46.3096 10.0386 48.0961C10.3661 50.5258 12.2998 52.7385 8.11462 54.1064Z" fill="url(#paint0_linear_233_54)"/>
<path d="M36.5812 24.888C36.5812 24.888 32.6421 16.6107 23.9386 15.3939C16.9633 14.4116 10.0327 17.9128 5.14422 15.5237C1.7438 13.8652 0.0910654 8.77328 0 0C0 0 1.41829 2.60408 8.2947 2.7339C14.9812 2.85984 25.7444 0.796338 31.8613 5.1171C36.4261 8.3412 38.2416 15.144 36.5812 24.888Z" fill="url(#paint1_linear_233_54)"/>
<path d="M51.9754 25.1761C52.4286 24.3879 53.069 23.7771 53.8966 23.3436C54.7242 22.8903 55.6996 22.6637 56.8228 22.6637C58.1431 22.6637 59.3352 23.0086 60.3993 23.6983C61.4831 24.3879 62.3304 25.3732 62.9412 26.654C63.5718 27.9348 63.8871 29.4324 63.8871 31.1467C63.8871 32.8611 63.5718 34.3685 62.9412 35.669C62.3304 36.9499 61.4831 37.9351 60.3993 38.6248C59.3352 39.3145 58.1431 39.6593 56.8228 39.6593C55.6996 39.6593 54.7242 39.4425 53.8966 39.009C53.069 38.5558 52.4286 37.9351 51.9754 37.1469V39.4524H46.1821V17.5799H51.9754V25.1761ZM58.0051 31.1467C58.0051 30.063 57.7096 29.2255 57.1184 28.6344C56.547 28.0235 55.8376 27.7181 54.9903 27.7181C54.1429 27.7181 53.4237 28.0235 52.8326 28.6344C52.2611 29.2452 51.9754 30.0827 51.9754 31.1467C51.9754 32.2305 52.2611 33.0778 52.8326 33.6887C53.4237 34.2995 54.1429 34.605 54.9903 34.605C55.8376 34.605 56.547 34.2995 57.1184 33.6887C57.7096 33.0581 58.0051 32.2108 58.0051 31.1467Z" fill="#252159"/>
<path d="M82.1148 30.9694C82.1148 31.4226 82.0852 31.8758 82.0261 32.329H71.0603C71.1194 33.2355 71.3657 33.9153 71.7992 34.3685C72.2525 34.802 72.8239 35.0188 73.5136 35.0188C74.4791 35.0188 75.1688 34.5853 75.5826 33.7182H81.7601C81.5039 34.8611 81.0015 35.8858 80.2527 36.7922C79.5236 37.6789 78.5975 38.3785 77.4743 38.8908C76.3511 39.4031 75.1097 39.6593 73.75 39.6593C72.1145 39.6593 70.6563 39.3145 69.3755 38.6248C68.1144 37.9351 67.1193 36.9499 66.3902 35.669C65.6808 34.3882 65.3261 32.8808 65.3261 31.1467C65.3261 29.4127 65.6808 27.9151 66.3902 26.654C67.0996 25.3732 68.0848 24.3879 69.346 23.6983C70.6268 23.0086 72.0948 22.6637 73.75 22.6637C75.3855 22.6637 76.8339 22.9987 78.095 23.6687C79.3561 24.3387 80.3414 25.3042 81.0507 26.5653C81.7601 27.8067 82.1148 29.2748 82.1148 30.9694ZM76.2033 29.5211C76.2033 28.8117 75.9668 28.26 75.4939 27.8659C75.021 27.4521 74.4299 27.2452 73.7205 27.2452C73.0111 27.2452 72.4298 27.4422 71.9766 27.8363C71.5234 28.2107 71.2278 28.7723 71.0899 29.5211H76.2033Z" fill="#252159"/>
<path d="M90.2789 25.7968C90.9292 24.851 91.7174 24.1022 92.6435 23.5505C93.5696 22.9987 94.5647 22.7229 95.6288 22.7229V28.9004H94.0032C92.742 28.9004 91.806 29.1467 91.1952 29.6393C90.5843 30.1319 90.2789 30.9891 90.2789 32.2108V39.4524H84.4856V22.8706H90.2789V25.7968Z" fill="#252159"/>
<path d="M100.514 39.6889C99.489 39.6889 98.6614 39.413 98.0308 38.8612C97.42 38.2898 97.1145 37.5706 97.1145 36.7035C97.1145 35.8365 97.42 35.1173 98.0308 34.5459C98.6614 33.9744 99.489 33.6887 100.514 33.6887C101.519 33.6887 102.327 33.9744 102.937 34.5459C103.568 35.1173 103.883 35.8365 103.883 36.7035C103.883 37.5509 103.568 38.2602 102.937 38.8317C102.327 39.4031 101.519 39.6889 100.514 39.6889Z" fill="#252159"/>
<path d="M109.522 21.3337C108.498 21.3337 107.67 21.0578 107.039 20.506C106.429 19.9346 106.123 19.2252 106.123 18.3779C106.123 17.5109 106.429 16.7917 107.039 16.2202C107.67 15.6488 108.498 15.363 109.522 15.363C110.527 15.363 111.335 15.6488 111.946 16.2202C112.576 16.7917 112.892 17.5109 112.892 18.3779C112.892 19.2252 112.576 19.9346 111.946 20.506C111.335 21.0578 110.527 21.3337 109.522 21.3337ZM112.389 22.8706V39.4524H106.596V22.8706H112.389Z" fill="#252159"/>
<path d="M126.063 39.4524L121.482 32.6542V39.4524H115.688V17.5799H121.482V29.3733L126.063 22.8706H133.009L126.477 31.2059L133.127 39.4524H126.063Z" fill="#252159"/>
<path d="M133.88 31.1467C133.88 29.4324 134.185 27.9348 134.796 26.654C135.427 25.3732 136.274 24.3879 137.338 23.6983C138.422 23.0086 139.624 22.6637 140.944 22.6637C142.087 22.6637 143.072 22.8903 143.9 23.3436C144.728 23.7968 145.368 24.4076 145.821 25.1761V22.8706H151.614V39.4524H145.821V37.1469C145.368 37.9154 144.718 38.5263 143.87 38.9795C143.043 39.4327 142.067 39.6593 140.944 39.6593C139.624 39.6593 138.422 39.3145 137.338 38.6248C136.274 37.9351 135.427 36.9499 134.796 35.669C134.185 34.3685 133.88 32.8611 133.88 31.1467ZM145.821 31.1467C145.821 30.0827 145.526 29.2452 144.934 28.6344C144.363 28.0235 143.654 27.7181 142.806 27.7181C141.939 27.7181 141.22 28.0235 140.649 28.6344C140.077 29.2255 139.791 30.063 139.791 31.1467C139.791 32.2108 140.077 33.0581 140.649 33.6887C141.22 34.2995 141.939 34.605 142.806 34.605C143.654 34.605 144.363 34.2995 144.934 33.6887C145.526 33.0778 145.821 32.2305 145.821 31.1467Z" fill="#252159"/>
<path d="M165.763 22.7229C167.675 22.7229 169.192 23.3633 170.315 24.6441C171.438 25.9052 172 27.6195 172 29.7871V39.4524H166.207V30.5556C166.207 29.6097 165.96 28.8708 165.468 28.3388C164.975 27.787 164.315 27.5112 163.487 27.5112C162.62 27.5112 161.94 27.787 161.448 28.3388C160.955 28.8708 160.709 29.6097 160.709 30.5556V39.4524H154.916V22.8706H160.709V25.2352C161.221 24.4865 161.911 23.8854 162.778 23.4322C163.645 22.9593 164.64 22.7229 165.763 22.7229Z" fill="#252159"/>
<defs>
<linearGradient id="paint0_linear_233_54" x1="35.5335" y1="48.6938" x2="-4.41675" y2="23.2643" gradientUnits="userSpaceOnUse">
<stop stop-color="#11B5D7"/>
<stop offset="0.14" stop-color="#17B6D8"/>
<stop offset="0.33" stop-color="#26BBDA"/>
<stop offset="0.53" stop-color="#40C1DE"/>
<stop offset="0.75" stop-color="#65CBE3"/>
<stop offset="0.98" stop-color="#93D7E9"/>
<stop offset="1" stop-color="#97D8EA"/>
</linearGradient>
<linearGradient id="paint1_linear_233_54" x1="-24.5179" y1="2.00925" x2="34.9594" y2="14.6344" gradientUnits="userSpaceOnUse">
<stop stop-color="#11B5D7"/>
<stop offset="1" stop-color="#0B78B8"/>
</linearGradient>
</defs>
</svg>
