<svg width="373" height="119" viewBox="0 0 373 119" fill="none" xmlns="http://www.w3.org/2000/svg">
<path d="M18.1751 117.278C56.3382 124.384 76.3561 99.4082 77.9376 79.4356C79.7271 57.1083 65.6604 42.0552 47.0159 40.5415C28.954 39.0698 11.5579 51.4739 14.0133 72.5397C14.0133 72.5397 44.4356 62.4063 51.7186 82.2948L51.7603 82.3789C52.3845 84.3131 52.6758 86.3734 52.5094 88.5178C51.8019 97.1796 44.1859 103.655 35.4046 102.94C30.6603 102.562 26.2072 100.039 23.4605 96.5489C23.4605 96.5489 21.7542 100.375 22.2952 104.244C23.0443 109.5 27.1644 114.293 18.1751 117.278Z" fill="url(#paint0_linear_98_100)"/>
<path d="M79.5439 53.2857C79.5439 53.2857 70.9912 35.5653 52.0743 32.9508C36.907 30.8343 21.824 38.3458 11.1648 33.2413C3.79182 29.7138 0.210657 18.7994 0 0C0 0 3.07559 5.56096 18.0322 5.85146C32.5675 6.14196 55.9925 1.7015 69.2639 10.9559C79.2068 17.8449 83.1251 32.4113 79.5439 53.2857Z" fill="url(#paint1_linear_98_100)"/>
<path d="M112.704 63.386C113.687 61.6893 115.076 60.3742 116.871 59.441C118.666 58.4654 120.781 57.9775 123.217 57.9775C126.08 57.9775 128.665 58.7199 130.973 60.2046C133.323 61.6893 135.161 63.8102 136.486 66.5675C137.853 69.3248 138.537 72.5487 138.537 76.2392C138.537 79.9297 137.853 83.1748 136.486 85.9745C135.161 88.7317 133.323 90.8527 130.973 92.3374C128.665 93.8221 126.08 94.5644 123.217 94.5644C120.781 94.5644 118.666 94.0978 116.871 93.1646C115.076 92.1889 113.687 90.8527 112.704 89.1559V94.119H100.14V47.0333H112.704V63.386ZM125.781 76.2392C125.781 73.9061 125.14 72.1033 123.858 70.8307C122.618 69.5157 121.08 68.8582 119.242 68.8582C117.405 68.8582 115.845 69.5157 114.563 70.8307C113.324 72.1457 112.704 73.9485 112.704 76.2392C112.704 78.5723 113.324 80.3963 114.563 81.7113C115.845 83.0263 117.405 83.6838 119.242 83.6838C121.08 83.6838 122.618 83.0263 123.858 81.7113C125.14 80.3539 125.781 78.5298 125.781 76.2392Z" fill="#252159"/>
<path d="M178.067 75.8574C178.067 76.833 178.003 77.8087 177.875 78.7844H154.093C154.222 80.7357 154.756 82.1991 155.696 83.1748C156.679 84.108 157.918 84.5746 159.414 84.5746C161.508 84.5746 163.003 83.6414 163.901 81.7749H177.298C176.742 84.2353 175.653 86.4411 174.029 88.3924C172.448 90.3013 170.439 91.8072 168.003 92.9101C165.568 94.013 162.875 94.5644 159.927 94.5644C156.38 94.5644 153.217 93.8221 150.44 92.3374C147.705 90.8527 145.547 88.7317 143.965 85.9745C142.427 83.2172 141.658 79.9721 141.658 76.2392C141.658 72.5063 142.427 69.2824 143.965 66.5675C145.504 63.8102 147.641 61.6893 150.376 60.2046C153.153 58.7199 156.337 57.9775 159.927 57.9775C163.474 57.9775 166.615 58.6987 169.349 60.1409C172.084 61.5832 174.221 63.6618 175.76 66.3766C177.298 69.0491 178.067 72.2093 178.067 75.8574ZM165.247 72.7396C165.247 71.2125 164.734 70.0247 163.709 69.1763C162.683 68.2855 161.401 67.8401 159.863 67.8401C158.324 67.8401 157.063 68.2643 156.081 69.1127C155.098 69.9187 154.457 71.1276 154.158 72.7396H165.247Z" fill="#252159"/>
<path d="M195.773 64.7223C197.183 62.6861 198.892 61.0742 200.901 59.8864C202.909 58.6987 205.067 58.1048 207.375 58.1048V71.4033H203.849C201.114 71.4033 199.085 71.9336 197.76 72.9941C196.435 74.0546 195.773 75.8998 195.773 78.5298V94.119H183.209V58.4229H195.773V64.7223Z" fill="#252159"/>
<path d="M217.969 94.6281C215.746 94.6281 213.952 94.0342 212.584 92.8465C211.259 91.6163 210.597 90.068 210.597 88.2015C210.597 86.335 211.259 84.7867 212.584 83.5566C213.952 82.3264 215.746 81.7113 217.969 81.7113C220.148 81.7113 221.9 82.3264 223.225 83.5566C224.592 84.7867 225.276 86.335 225.276 88.2015C225.276 90.0255 224.592 91.5527 223.225 92.7828C221.9 94.013 220.148 94.6281 217.969 94.6281Z" fill="#252159"/>
<path d="M237.505 55.1142C235.283 55.1142 233.488 54.5203 232.121 53.3326C230.796 52.1024 230.134 50.5753 230.134 48.7513C230.134 46.8848 230.796 45.3365 232.121 44.1063C233.488 42.8762 235.283 42.2611 237.505 42.2611C239.685 42.2611 241.437 42.8762 242.762 44.1063C244.129 45.3365 244.813 46.8848 244.813 48.7513C244.813 50.5753 244.129 52.1024 242.762 53.3326C241.437 54.5203 239.685 55.1142 237.505 55.1142ZM243.723 58.4229V94.119H231.159V58.4229H243.723Z" fill="#252159"/>
<path d="M273.377 94.119L263.442 79.4843V94.119H250.878V47.0333H263.442V72.4214L273.377 58.4229H288.441L274.275 76.3664L288.698 94.119H273.377Z" fill="#252159"/>
<path d="M290.33 76.2392C290.33 72.5487 290.992 69.3248 292.317 66.5675C293.684 63.8102 295.522 61.6893 297.83 60.2046C300.18 58.7199 302.787 57.9775 305.65 57.9775C308.128 57.9775 310.265 58.4654 312.06 59.441C313.855 60.4167 315.244 61.7317 316.227 63.386V58.4229H328.79V94.119H316.227V89.1559C315.244 90.8103 313.833 92.1253 311.996 93.101C310.201 94.0766 308.086 94.5644 305.65 94.5644C302.787 94.5644 300.18 93.8221 297.83 92.3374C295.522 90.8527 293.684 88.7317 292.317 85.9745C290.992 83.1748 290.33 79.9297 290.33 76.2392ZM316.227 76.2392C316.227 73.9485 315.586 72.1457 314.303 70.8307C313.064 69.5157 311.526 68.8582 309.688 68.8582C307.808 68.8582 306.248 69.5157 305.009 70.8307C303.77 72.1033 303.15 73.9061 303.15 76.2392C303.15 78.5298 303.77 80.3539 305.009 81.7113C306.248 83.0263 307.808 83.6838 309.688 83.6838C311.526 83.6838 313.064 83.0263 314.303 81.7113C315.586 80.3963 316.227 78.5723 316.227 76.2392Z" fill="#252159"/>
<path d="M359.475 58.1048C363.62 58.1048 366.91 59.4834 369.346 62.2407C371.782 64.9556 373 68.6461 373 73.3122V94.119H360.436V74.9666C360.436 72.9304 359.902 71.3397 358.834 70.1944C357.765 69.0066 356.334 68.4128 354.539 68.4128C352.659 68.4128 351.184 69.0066 350.116 70.1944C349.048 71.3397 348.513 72.9304 348.513 74.9666V94.119H335.95V58.4229H348.513V63.5133C349.624 61.9013 351.12 60.6076 353 59.6319C354.881 58.6138 357.039 58.1048 359.475 58.1048Z" fill="#252159"/>
<defs>
<linearGradient id="paint0_linear_98_100" x1="77.3488" y1="105.189" x2="-8.68616" y2="50.9675" gradientUnits="userSpaceOnUse">
<stop stop-color="#11B5D7"/>
<stop offset="0.1909" stop-color="#27B7D8"/>
<stop offset="0.4336" stop-color="#49BDDB"/>
<stop offset="0.7041" stop-color="#6DC7E1"/>
<stop offset="0.9932" stop-color="#96D8EA"/>
<stop offset="1" stop-color="#97D8EA"/>
</linearGradient>
<linearGradient id="paint1_linear_98_100" x1="-53.3266" y1="4.26763" x2="75.8306" y2="32.1013" gradientUnits="userSpaceOnUse">
<stop stop-color="#11B5D7"/>
<stop offset="1" stop-color="#0B78B8"/>
</linearGradient>
</defs>
</svg>
