<?xml version="1.0" encoding="utf-8"?>
<!-- Generator: Adobe Illustrator 24.2.3, SVG Export Plug-In . SVG Version: 6.00 Build 0)  -->
<svg version="1.1" id="Layer_1" xmlns="http://www.w3.org/2000/svg" xmlns:xlink="http://www.w3.org/1999/xlink" x="0px" y="0px"
	 viewBox="0 0 90 77" style="enable-background:new 0 0 90 77;" xml:space="preserve">
<style type="text/css">
	.st0{fill:#0077B6;}
	.st1{display:none;fill:#0077B6;}
</style>
<path class="st0" d="M40.6,0l-3.2,1.1l4.9,14.8h3.6L40.6,0z M10.2,7.5l-2.7,2l2.7,3.7v17.7h3.4v-13l13.6,18.8h4.2L10.2,7.5z M48,9.5
	v3.4h7.4v3h3.4v-3h7.4V9.5H48z M43.7,19.3v23.9h20.5l-1-8.7H49.3V19.3H43.7z M52.7,19.3v11.8h10.2l-1.3-11.8H52.7z M13.5,40.2v3
	h20.7v-3H13.5z M0.3,46.6l7.8,20.9h60.3l21.5-20.9H23.2c3.1,1,5.4,4,5.4,7.4c0,4.3-3.5,7.8-7.7,7.8s-7.7-3.5-7.7-7.8
	c0-3.4,2.3-6.4,5.4-7.4H0.3z M20.9,49.7c-2.4,0-4.3,1.9-4.3,4.4s1.9,4.4,4.3,4.4s4.3-1.9,4.3-4.4S23.3,49.7,20.9,49.7z M60.1,49.7
	h15.1v3.4H60.1V49.7z M14.8,70.5C9.4,71,5.2,72.1,0,73.7l1,3.3c4.4-1,9.2-2.9,13.8-3c4.5,0,9.3,3,15.1,3s10.6-3,15.1-3s9.3,3,15.1,3
	s10.6-3,15.1-3c5.2,0.4,8.8,1.5,13.8,3l1-3.3c-4.9-1.3-9.6-3.1-14.8-3.1c-5.8,0-10.6,3-15.1,3c-4.5,0-9.3-3-15.1-3s-10.6,3-15.1,3
	C25.4,73.6,20.6,70.5,14.8,70.5z"/>
<path class="st1" d="M36.4,27.8c2.2-2.6,5.4-4.3,9.1-4.3s6.9,1.7,9.1,4.3c1.4,1.7,2.3,3.8,2.6,6c0.3,2.2-0.1,4.5-1,6.5
	c-1,2-2.5,3.7-4.3,4.9c-1.9,1.2-4.1,1.8-6.3,1.8c-2.2,0-4.4-0.6-6.3-1.8c-1.9-1.2-3.4-2.9-4.3-4.9c-1-2-1.3-4.3-1-6.5
	C34.1,31.6,35,29.5,36.4,27.8L36.4,27.8z M61.5,35.3c0-2.7-0.7-5.3-1.8-7.5h17.9c1.7,0,3.3,0.7,4.5,1.9c1.2,1.2,1.9,2.8,1.9,4.5v2.1
	c0,6.8-5.2,13.7-14.2,16.2c-0.9-1.7-2.3-3.1-3.9-4c-1.6-1-3.5-1.5-5.4-1.5h-4.1c1.6-1.5,2.9-3.3,3.8-5.3
	C61.1,39.7,61.5,37.5,61.5,35.3z M60.5,51.3c0.8,0,1.7,0.2,2.5,0.5c0.8,0.3,1.5,0.8,2.1,1.4c0.6,0.6,1.1,1.3,1.4,2.1
	c0.3,0.8,0.5,1.6,0.5,2.5v2.1c0,8.4-8,17.1-21.4,17.1s-21.4-8.7-21.4-17.1v-2.1c0-0.8,0.2-1.7,0.5-2.5c0.3-0.8,0.8-1.5,1.4-2.1
	c0.6-0.6,1.3-1.1,2.1-1.4c0.8-0.3,1.6-0.5,2.5-0.5H60.5z M7,36.4c0,6.8,5.2,13.7,14.2,16.2c0.9-1.7,2.3-3.1,3.9-4
	c1.6-1,3.5-1.5,5.4-1.5h4.1c-1.6-1.5-2.9-3.3-3.8-5.3c-0.9-2-1.3-4.2-1.3-6.4c0-2.7,0.7-5.3,1.9-7.5H13.4c-1.7,0-3.3,0.7-4.5,1.9
	C7.7,30.9,7,32.5,7,34.2V36.4z M40.2,11.8c0-3.1-1.2-6.1-3.4-8.3C34.5,1.2,31.5,0,28.4,0c-3.1,0-6.1,1.2-8.3,3.4
	c-2.2,2.2-3.4,5.2-3.4,8.3c0,3.1,1.2,6.1,3.4,8.3c2.2,2.2,5.2,3.4,8.3,3.4c3.1,0,6.1-1.2,8.3-3.4C38.9,17.9,40.2,14.9,40.2,11.8z
	 M74.4,11.8c0-3.1-1.2-6.1-3.4-8.3C68.7,1.2,65.7,0,62.6,0c-3.1,0-6.1,1.2-8.3,3.4c-2.2,2.2-3.4,5.2-3.4,8.3c0,3.1,1.2,6.1,3.4,8.3
	c2.2,2.2,5.2,3.4,8.3,3.4c3.1,0,6.1-1.2,8.3-3.4C73.1,17.9,74.4,14.9,74.4,11.8z"/>
<path class="st1" d="M85.2-0.1v38.5c-0.4,0.3-0.8,0.7-1,1.1c-0.2,0.4-0.4,0.9-0.4,1.4c0,0.5,0.1,1,0.4,1.5c0.2,0.4,0.6,0.8,1,1.1v13
	c0,1.1-0.4,1.7-0.8,2.1c-0.5,0.4-1.1,0.6-1.8,0.4c-1.4-0.2-3.2-1.6-3.2-5.6h3l-6.1-8.3l-0.4,8.3h0c0,0,0,0,0,0.1l0,0h0
	c0,5.2,2.9,8.5,6.1,9c1.6,0.3,3.3-0.1,4.6-1.2c1.3-1.1,2.1-2.8,2.1-4.8v-13c0.4-0.3,0.8-0.7,1-1.1C89.9,42,90,41.5,90,41
	c0-0.5-0.1-1-0.4-1.5c-0.2-0.4-0.6-0.8-1-1.1V-0.1H85.2z M34.3,21.4l-2.8,0l1.3,2.5c2.1,4.3,2.6,8.7,1.2,13.7
	c3.2-1.5,6.3-2.8,9.1-3.7c3.3-1,6.7-1.7,10.1-2.1c-1.9-2.3-3.8-4.7-6.4-6.6C43.7,23,39.7,21.4,34.3,21.4L34.3,21.4z M59.3,35
	c-5.2,0-10.3,0.7-15.2,2.2c-5.8,1.8-13.4,5.7-19.5,9.7c-3,2-5.7,4.2-7.5,6.1c-1.8,1.9-2.7,3.6-2.7,4.3c0,0.2,0.1,0.7,0.6,1.3
	c0.5,0.6,1.4,1.4,2.5,2.1c2.3,1.5,5.6,3.1,9.3,4.5c2.1,0.8,4.3,1.6,6.6,2.3c0.9-1.1,1.8-2.1,2.5-3c0.9-1.1,1.6-2.1,2.1-2.9
	c0.4-0.6,0.5-1.1,0.6-1.2c0,0,0,0,0,0.1l3.5,0c0,1.3-0.6,2-1.2,3c-0.6,1-1.4,2.1-2.4,3.2c-0.8,1-1.7,2.1-2.7,3.2
	c3.4-0.8,7-1.5,10.2-2.4c2.5-0.7,4.7-1.5,6.1-2.3c1.4-0.8,1.8-1.4,1.8-1.7l3.5,0.1c-0.1,2.2-1.8,3.6-3.6,4.6c-1.9,1-4.2,1.8-6.8,2.5
	c0.9,0.1,1.8,0.3,2.7,0.4c5.6,0.6,13.2,0.6,19.7-0.3c3.3-0.5,6.2-1.1,8.5-2c1-0.4,1.8-0.8,2.4-1.3c-2.4-0.7-5.1-1.4-8-2.6
	c-4-1.6-7.9-4.1-9-8.4c-0.7-2.6,0.5-5,2.1-6.9c1.6-1.8,3.7-3.4,5.6-5c1.9-1.5,3.7-3.1,4.6-4.4c0.7-1.1,1-2,0.6-3.2
	c-5.4-1.2-10.7-2-16-2.1C60,35,59.7,35,59.3,35L59.3,35z M-0.1,39.8l2.1,3c4.9,6.9,5.6,20.2,3.8,29.4l-0.6,2.9l2.8-1
	c6-2.1,9.6-5,12.2-8c-1.7-0.8-3.3-1.7-4.6-2.6c-1.3-0.9-2.4-1.8-3.2-2.8c-0.8-1-1.5-2.2-1.5-3.5c0-2.4,1.5-4.5,3.6-6.7
	c0.9-0.9,1.9-1.9,3.1-2.8c-3.5-4.5-8.4-7.3-14.1-7.8L-0.1,39.8L-0.1,39.8z M64.1,41.8c0.8,0,1.6,0.3,2.2,0.9
	c0.6,0.6,0.9,1.4,0.9,2.2c0,0.8-0.3,1.6-0.9,2.2c-0.6,0.6-1.4,0.9-2.2,0.9c-0.8,0-1.6-0.3-2.2-0.9c-0.6-0.6-0.9-1.4-0.9-2.2
	c0-0.8,0.3-1.6,0.9-2.2C62.5,42.1,63.3,41.8,64.1,41.8z"/>
<path class="st1" d="M11,77V25.7L45.6,0l34.6,25.7V77h-13V34.2H24V77H11z M32.6,68.4h25.9v-8.6H32.6V68.4z M32.6,51.3h25.9v-8.6
	H32.6V51.3z"/>
</svg>
