<svg width="341" height="502" viewBox="0 0 341 502" fill="none" xmlns="http://www.w3.org/2000/svg">
<path d="M74.4231 496.225C237.344 526.292 322.855 420.735 329.679 336.396C337.25 242.141 277.327 178.487 197.68 172.09C120.591 165.906 46.2745 218.364 56.7236 307.182C56.7236 307.182 186.591 264.319 217.725 348.338L217.831 348.658C220.604 356.761 221.67 365.611 221.03 374.674C218.045 411.353 185.418 438.541 148.1 435.556C127.841 433.957 108.756 423.401 97.1339 408.58C97.1339 408.58 89.8835 424.787 92.1225 441.1C95.108 463.385 112.807 483.75 74.4231 496.225Z" fill="url(#paint0_linear_140_500)"/>
<path d="M335.437 228.281C335.437 228.281 299.292 152.365 219.537 141.169C155.563 132.213 92.0159 164.2 47.1275 142.342C15.9935 127.202 0.852987 80.5006 0 0C0 0 13.008 23.8836 76.0224 25.0565C137.331 26.2293 236.064 7.25038 292.148 46.9143C334.051 76.5555 350.684 138.93 335.437 228.281Z" fill="url(#paint1_linear_140_500)"/>
<defs>
<linearGradient id="paint0_linear_140_500" x1="326.951" y1="445.236" x2="-38.1963" y2="212.73" gradientUnits="userSpaceOnUse">
<stop stop-color="#11B5D7"/>
<stop offset="0.1909" stop-color="#27B7D8"/>
<stop offset="0.4336" stop-color="#49BDDB"/>
<stop offset="0.7041" stop-color="#6DC7E1"/>
<stop offset="0.9932" stop-color="#96D8EA"/>
<stop offset="1" stop-color="#97D8EA"/>
</linearGradient>
<linearGradient id="paint1_linear_140_500" x1="-224.831" y1="18.5199" x2="320.568" y2="134.293" gradientUnits="userSpaceOnUse">
<stop stop-color="#11B5D7"/>
<stop offset="1" stop-color="#0B78B8"/>
</linearGradient>
</defs>
</svg>
