<svg width="22" height="24" viewBox="0 0 22 24" fill="none" xmlns="http://www.w3.org/2000/svg">
<path d="M1 5.88889H21M8.5 10.7778V18.1111M13.5 10.7778V18.1111M2.25 5.88889L3.5 20.5556C3.5 21.2039 3.76339 21.8256 4.23223 22.284C4.70107 22.7425 5.33696 23 6 23H16C16.663 23 17.2989 22.7425 17.7678 22.284C18.2366 21.8256 18.5 21.2039 18.5 20.5556L19.75 5.88889M7.25 5.88889V2.22222C7.25 1.89807 7.3817 1.58719 7.61612 1.35798C7.85054 1.12877 8.16848 1 8.5 1H13.5C13.8315 1 14.1495 1.12877 14.3839 1.35798C14.6183 1.58719 14.75 1.89807 14.75 2.22222V5.88889" stroke="#565656" stroke-width="2" stroke-linecap="round" stroke-linejoin="round"/>
</svg>
