<svg width="36" height="36" viewBox="0 0 36 36" fill="none" xmlns="http://www.w3.org/2000/svg">
<g clip-path="url(#clip0_1_414)">
<path d="M18.0002 35.9997C27.9412 35.9997 36 27.9409 36 17.9998C36 8.0588 27.9412 0 18.0002 0C8.05917 0 0.000366211 8.0588 0.000366211 17.9998C0.000366211 27.9409 8.05917 35.9997 18.0002 35.9997Z" fill="#55ACEE"/>
<path d="M29.0257 12.936C28.2543 13.278 27.4246 13.5094 26.5544 13.6127C27.4428 13.0804 28.1247 12.2381 28.4465 11.2328C27.6151 11.726 26.6939 12.0838 25.7143 12.2766C24.9295 11.4408 23.8113 10.9184 22.5731 10.9184C20.1974 10.9184 18.2706 12.8452 18.2706 15.2209C18.2706 15.5581 18.3088 15.8863 18.3826 16.2014C14.8069 16.0221 11.6364 14.3093 9.51424 11.7055C9.14396 12.3408 8.93155 13.0804 8.93155 13.8687C8.93155 15.3611 9.69167 16.6785 10.8455 17.4499C10.1406 17.4278 9.4767 17.2343 8.89689 16.9112C8.89657 16.9295 8.89657 16.9478 8.89657 16.9657C8.89657 19.0504 10.3803 20.7891 12.3481 21.1841C11.9875 21.283 11.6066 21.3352 11.2148 21.3352C10.9369 21.3352 10.6677 21.3086 10.4053 21.2586C10.9527 22.9675 12.5413 24.2115 14.4244 24.2465C12.9517 25.4006 11.0967 26.0882 9.08043 26.0882C8.7339 26.0882 8.39057 26.068 8.05463 26.0279C9.95767 27.2491 12.2198 27.9611 14.6493 27.9611C22.5631 27.9611 26.891 21.4052 26.891 15.7192C26.891 15.5327 26.8868 15.347 26.8784 15.1628C27.7198 14.5564 28.4491 13.7988 29.0257 12.936Z" fill="#F1F2F2"/>
</g>
<defs>
<clipPath id="clip0_1_414">
<rect width="36" height="36" fill="white"/>
</clipPath>
</defs>
</svg>
